<svg version="1" xmlns="http://www.w3.org/2000/svg" width="305.333" height="305.333" viewBox="0 0 229.000000 229.000000"><path d="M111.6 6.2c-1 2.4-2.4 5.6-3.1 7.3-.7 1.6-3.8 8.6-6.8 15.5s-6.3 14.5-7.4 17c-1.2 2.5-5.8 13-10.3 23.5-4.6 10.4-9.6 21.8-11.1 25.3-1.6 3.4-2.9 6.4-2.9 6.7 0 .2-1.3 3.2-2.9 6.7-1.6 3.5-5.9 13.3-9.6 21.8-3.7 8.5-7.8 17.9-9.1 20.8-1.3 2.9-2.4 5.5-2.4 5.7 0 .2-1.3 3.3-2.8 6.7-9 19.8-27 61.3-26.7 61.6.2.3 18.4.5 22.5.3 1.4-.1 4.3-1.8 6.6-3.9 2.2-2 6.9-6.2 10.4-9.2 3.5-3 6.8-6 7.4-6.5.6-.6 10.3-9.1 21.6-19s20.7-18.2 21-18.5c.3-.3 2.2-2 4.1-3.8l3.6-3.3 13.4 11.7c7.4 6.4 16.6 14.5 20.4 17.9 3.9 3.4 8.8 7.7 11 9.6 2.2 1.9 4.9 4.3 6.1 5.4 1.1 1.1 3.4 3.1 5 4.5s6.1 5.3 10.1 8.8l7.1 6.2 12.1.2c6.6.1 12.2 0 12.4-.3.2-.2-8.1-19.7-18.5-43.4s-19.3-43.9-19.7-45c-5.7-13.2-15.6-36.1-27.8-64-8.2-18.7-18.5-42.2-22.9-52.2-4.3-10.1-8.2-18.3-8.5-18.3-.3 0-1.3 1.9-2.3 4.2zM126 82.5c.5 1.1 6.4 14.6 13 30 6.7 15.4 13.1 30.2 14.3 32.9 10.3 23 19.4 44.2 19.1 44.5-.2.2-2.5-1.6-5.2-4-2.6-2.4-6.3-5.8-8.3-7.4-7.2-6.3-19.4-17-19.9-17.5-.3-.3-6.1-5.4-12.9-11.4l-12.4-10.7-3.6 3.3c-1.9 1.8-3.8 3.5-4.1 3.8-.3.3-3.9 3.4-8 7s-7.7 6.7-8 7c-1.8 1.9-32.7 28.8-33.7 29.4-.8.4-.6-.9.6-3.6 3.7-8.6 43.4-99.4 45.6-104.3l6-14c2.1-5 4.3-9.6 4.8-10.3.7-.9 2.5 2.2 6.3 11 3 6.8 5.8 13.2 6.4 14.3z"/></svg>